# xmcd
#
# Track frame offsets:
#	187
#	22490
#	41185
#	61350
#	77262
#	103647
#	119935
#	138480
#	156712
#	175237
#	189612
#	207810
#	225227
#	250817
#	270687
#	288232
#
# Disc length: 4152 seconds
#
# Revision: 1
# Processed by: cddbd v1.5.1PL0 Copyright (c) Steve Scherf et al.
# Submitted via: CDex 1.50Beta5
#
DISCID=ef103610
DTITLE=武田鉄矢 - 全曲集
DYEAR=1900
DGENRE=
TTITLE0=伝言
TTITLE1=贈る言葉
TTITLE2=コスモス
TTITLE3=夢がとまらない
TTITLE4=未だ僕の旅
TTITLE5=もう春なんだなあ
TTITLE6=唇をかみしめて
TTITLE7=如月の風の中で
TTITLE8=駅におりたら
TTITLE9=少年期
TTITLE10=男と女のはしご酒
TTITLE11=男と女のラブゲーム
TTITLE12=浪漫
TTITLE13=人生の秋に
TTITLE14=がんばれ俺
TTITLE15=声援
EXTD=
EXTT0=
EXTT1=
EXTT2=
EXTT3=
EXTT4=
EXTT5=
EXTT6=
EXTT7=
EXTT8=
EXTT9=
EXTT10=
EXTT11=
EXTT12=
EXTT13=
EXTT14=
EXTT15=
PLAYORDER=
